<svg width="158" height="201" viewBox="0 0 158 201" fill="none" xmlns="http://www.w3.org/2000/svg">
<path d="M25.8733 184.269C23.8466 184.269 22.1079 183.97 20.6573 183.373C19.2066 182.775 18.1079 181.997 17.3613 181.037C16.6359 180.055 16.2519 178.989 16.2093 177.837C16.2093 177.666 16.2733 177.517 16.4013 177.389C16.5506 177.239 16.7213 177.165 16.9133 177.165H20.9453C21.2013 177.165 21.4039 177.218 21.5533 177.325C21.7239 177.41 21.8946 177.549 22.0653 177.741C22.3426 178.295 22.7906 178.754 23.4093 179.117C24.0279 179.479 24.8493 179.661 25.8733 179.661C27.0893 179.661 28.0173 179.469 28.6573 179.085C29.2973 178.701 29.6173 178.178 29.6173 177.517C29.6173 177.047 29.4466 176.663 29.1053 176.365C28.7853 176.066 28.2733 175.799 27.5693 175.565C26.8653 175.33 25.8199 175.063 24.4333 174.765C21.8733 174.231 19.9533 173.453 18.6733 172.429C17.4146 171.383 16.7853 169.901 16.7853 167.981C16.7853 166.679 17.1479 165.517 17.8733 164.493C18.5986 163.469 19.6333 162.669 20.9773 162.093C22.3213 161.517 23.8893 161.229 25.6813 161.229C27.5373 161.229 29.1479 161.549 30.5133 162.189C31.8786 162.829 32.9133 163.639 33.6173 164.621C34.3426 165.581 34.7266 166.53 34.7693 167.469C34.7693 167.661 34.7053 167.821 34.5773 167.949C34.4493 168.077 34.2893 168.141 34.0972 168.141H29.8733C29.6173 168.141 29.4039 168.098 29.2333 168.013C29.0839 167.927 28.9453 167.789 28.8173 167.597C28.6893 167.106 28.3373 166.69 27.7613 166.349C27.2066 166.007 26.5133 165.837 25.6813 165.837C24.7213 165.837 23.9853 166.007 23.4733 166.349C22.9613 166.69 22.7053 167.191 22.7053 167.853C22.7053 168.301 22.8439 168.674 23.1213 168.973C23.4199 169.271 23.8893 169.549 24.5293 169.805C25.1906 170.039 26.1293 170.285 27.3453 170.541C29.3293 170.903 30.9079 171.362 32.0813 171.917C33.2759 172.45 34.1506 173.154 34.7053 174.029C35.2599 174.882 35.5373 175.959 35.5373 177.261C35.5373 178.69 35.1213 179.938 34.2893 181.005C33.4786 182.05 32.3373 182.861 30.8653 183.437C29.4146 183.991 27.7506 184.269 25.8733 184.269ZM47.988 184.269C44.916 184.269 42.516 183.522 40.788 182.029C39.06 180.514 38.1427 178.37 38.036 175.597C38.0147 174.978 38.004 173.997 38.004 172.653C38.004 171.309 38.0147 170.327 38.036 169.709C38.1427 166.999 39.0707 164.909 40.82 163.437C42.5907 161.965 44.98 161.229 47.988 161.229C50.0147 161.229 51.7747 161.559 53.268 162.221C54.7827 162.882 55.9347 163.725 56.724 164.749C57.5347 165.773 57.9613 166.829 58.004 167.917C58.004 168.109 57.9293 168.269 57.78 168.397C57.652 168.525 57.492 168.589 57.3 168.589H52.628C52.4147 168.589 52.244 168.557 52.116 168.493C51.988 168.429 51.8813 168.311 51.796 168.141C51.5187 167.522 51.0813 166.989 50.484 166.541C49.8867 166.071 49.0547 165.837 47.988 165.837C45.4493 165.837 44.116 167.181 43.988 169.869C43.9667 170.466 43.956 171.394 43.956 172.653C43.956 173.89 43.9667 174.818 43.988 175.437C44.116 178.253 45.4813 179.661 48.084 179.661C49.3427 179.661 50.3453 179.341 51.092 178.701C51.86 178.039 52.244 177.037 52.244 175.693V175.085H49.236C49.0013 175.085 48.8093 175.01 48.66 174.861C48.5107 174.69 48.436 174.487 48.436 174.253V171.885C48.436 171.65 48.5107 171.458 48.66 171.309C48.8093 171.138 49.0013 171.053 49.236 171.053H57.3C57.5347 171.053 57.7267 171.138 57.876 171.309C58.0253 171.458 58.1 171.65 58.1 171.885V175.533C58.1 177.346 57.684 178.914 56.852 180.237C56.02 181.538 54.836 182.541 53.3 183.245C51.7853 183.927 50.0147 184.269 47.988 184.269ZM65.199 183.949C64.8363 183.949 64.5483 183.853 64.335 183.661C64.1217 183.447 63.9937 183.191 63.951 182.893L60.463 162.445C60.4417 162.381 60.431 162.306 60.431 162.221C60.431 162.05 60.495 161.901 60.623 161.773C60.7723 161.623 60.9323 161.549 61.103 161.549H65.071C65.6683 161.549 65.999 161.783 66.063 162.253L68.143 174.733L70.447 167.373C70.6817 166.797 71.0337 166.509 71.503 166.509H73.807C74.3403 166.509 74.6923 166.797 74.863 167.373L77.167 174.733L79.247 162.253C79.311 161.783 79.6417 161.549 80.239 161.549H84.207C84.399 161.549 84.559 161.623 84.687 161.773C84.8363 161.901 84.911 162.05 84.911 162.221L84.879 162.445L81.391 182.893C81.3483 183.191 81.2097 183.447 80.975 183.661C80.7617 183.853 80.4843 183.949 80.143 183.949H77.103C76.7617 183.949 76.495 183.863 76.303 183.693C76.111 183.522 75.9723 183.33 75.887 183.117L72.655 173.965L69.423 183.117C69.231 183.671 68.8363 183.949 68.239 183.949H65.199ZM92.2238 184.269C91.0931 184.269 90.0584 184.055 89.1198 183.629C88.2024 183.181 87.4771 182.583 86.9438 181.837C86.4318 181.069 86.1758 180.226 86.1758 179.309C86.1758 177.837 86.7731 176.653 87.9678 175.757C89.1838 174.861 90.8478 174.242 92.9598 173.901L96.9598 173.293V172.845C96.9598 172.034 96.7891 171.437 96.4478 171.053C96.1064 170.669 95.5304 170.477 94.7198 170.477C94.2291 170.477 93.8238 170.562 93.5038 170.733C93.1838 170.903 92.8531 171.138 92.5118 171.437C92.2131 171.693 91.9891 171.863 91.8398 171.949C91.7758 172.119 91.6584 172.205 91.4878 172.205H87.9998C87.7864 172.205 87.6051 172.141 87.4557 172.013C87.3278 171.863 87.2744 171.693 87.2958 171.501C87.3171 170.925 87.5944 170.285 88.1278 169.581C88.6824 168.877 89.5144 168.269 90.6238 167.757C91.7544 167.245 93.1411 166.989 94.7838 166.989C97.4078 166.989 99.3491 167.575 100.608 168.749C101.866 169.901 102.496 171.458 102.496 173.421V183.149C102.496 183.362 102.421 183.554 102.272 183.725C102.122 183.874 101.93 183.949 101.696 183.949H97.9838C97.7704 183.949 97.5784 183.874 97.4078 183.725C97.2584 183.554 97.1838 183.362 97.1838 183.149V182.029C96.7144 182.69 96.0531 183.234 95.1998 183.661C94.3678 184.066 93.3758 184.269 92.2238 184.269ZM93.7278 180.621C94.7091 180.621 95.4984 180.301 96.0958 179.661C96.7144 179.021 97.0238 178.082 97.0238 176.845V176.397L94.3038 176.877C92.3838 177.218 91.4238 177.89 91.4238 178.893C91.4238 179.426 91.6478 179.853 92.0958 180.173C92.5438 180.471 93.0878 180.621 93.7278 180.621ZM112.955 184.269C111.227 184.269 109.776 184.023 108.603 183.533C107.451 183.042 106.597 182.455 106.043 181.773C105.488 181.09 105.211 180.482 105.211 179.949C105.211 179.735 105.285 179.565 105.435 179.437C105.605 179.287 105.787 179.213 105.979 179.213H109.627C109.755 179.213 109.872 179.266 109.979 179.373C110.235 179.543 110.427 179.682 110.555 179.789C111.024 180.13 111.429 180.386 111.771 180.557C112.133 180.706 112.571 180.781 113.083 180.781C113.701 180.781 114.203 180.663 114.587 180.429C114.992 180.173 115.195 179.821 115.195 179.373C115.195 179.01 115.088 178.722 114.875 178.509C114.683 178.295 114.299 178.093 113.723 177.901C113.147 177.687 112.272 177.463 111.099 177.229C109.328 176.866 107.963 176.279 107.003 175.469C106.064 174.637 105.595 173.527 105.595 172.141C105.595 171.266 105.872 170.434 106.427 169.645C106.981 168.855 107.803 168.215 108.891 167.725C110 167.234 111.312 166.989 112.827 166.989C114.341 166.989 115.664 167.223 116.795 167.693C117.925 168.162 118.779 168.738 119.355 169.421C119.952 170.082 120.251 170.69 120.251 171.245C120.251 171.437 120.176 171.607 120.027 171.757C119.899 171.906 119.739 171.981 119.547 171.981H116.219C116.048 171.981 115.888 171.927 115.739 171.821C115.461 171.671 115.216 171.511 115.003 171.341C114.64 171.063 114.299 170.85 113.979 170.701C113.659 170.551 113.264 170.477 112.795 170.477C112.24 170.477 111.792 170.605 111.451 170.861C111.131 171.117 110.971 171.447 110.971 171.853C110.971 172.173 111.056 172.439 111.227 172.653C111.419 172.866 111.803 173.079 112.379 173.293C112.976 173.485 113.851 173.687 115.003 173.901C117.072 174.263 118.576 174.903 119.515 175.821C120.475 176.738 120.955 177.815 120.955 179.053C120.955 180.631 120.251 181.901 118.843 182.861C117.435 183.799 115.472 184.269 112.955 184.269ZM124.594 183.949C124.381 183.949 124.189 183.874 124.018 183.725C123.869 183.554 123.794 183.362 123.794 183.149V162.029C123.794 161.794 123.869 161.602 124.018 161.453C124.189 161.303 124.381 161.229 124.594 161.229H128.69C128.925 161.229 129.117 161.303 129.266 161.453C129.416 161.602 129.49 161.794 129.49 162.029V169.165C130.77 167.714 132.456 166.989 134.546 166.989C135.784 166.989 136.882 167.266 137.842 167.821C138.824 168.375 139.592 169.197 140.146 170.285C140.701 171.373 140.978 172.685 140.978 174.221V183.149C140.978 183.362 140.904 183.554 140.754 183.725C140.605 183.874 140.413 183.949 140.178 183.949H136.05C135.837 183.949 135.645 183.874 135.474 183.725C135.325 183.554 135.25 183.362 135.25 183.149V174.413C135.25 173.41 135.005 172.642 134.514 172.109C134.045 171.554 133.352 171.277 132.434 171.277C131.517 171.277 130.792 171.554 130.258 172.109C129.746 172.642 129.49 173.41 129.49 174.413V183.149C129.49 183.383 129.416 183.575 129.266 183.725C129.117 183.874 128.925 183.949 128.69 183.949H124.594Z" fill="black"/>
<path d="M144.464 46.5284C143.841 53.923 136.136 55.09 136.136 55.09C142.752 55.4014 144.401 64.0801 144.401 64.0801C144.542 57.8921 152.919 54.9986 152.919 54.9986C146.643 54.6232 144.464 46.5284 144.464 46.5284Z" fill="#D7E057"/>
<path d="M152.976 54.0413C147.473 53.7119 145.41 46.3525 145.39 46.2777C145.269 45.8288 144.845 45.534 144.377 45.573C143.914 45.6152 143.547 45.9835 143.508 46.4471C142.959 52.9791 136.275 54.0975 135.992 54.1416C135.504 54.2152 135.152 54.6468 135.178 55.1398C135.204 55.6322 135.598 56.0248 136.091 56.0485C141.863 56.3203 143.444 64.181 143.458 64.2603C143.546 64.715 143.944 65.0385 144.4 65.0385C144.427 65.0385 144.454 65.0372 144.481 65.0353C144.969 64.9944 145.348 64.5922 145.36 64.1024C145.484 58.6613 153.156 55.9321 153.233 55.9052C153.665 55.755 153.931 55.3208 153.869 54.8674C153.806 54.4147 153.432 54.0687 152.976 54.0413ZM144.301 60.6564C143.434 58.6549 141.929 56.2397 139.45 54.9806C141.324 54.0822 143.548 52.4784 144.694 49.6911C145.686 51.6548 147.38 54.0905 150.023 55.2684C148.101 56.3171 145.597 58.0851 144.301 60.6564Z" fill="#3A312A"/>
<path d="M130.589 57.3861C130.148 62.6162 124.698 63.4423 124.698 63.4423C129.377 63.6623 130.544 69.801 130.544 69.801C130.644 65.424 136.569 63.3778 136.569 63.3778C132.13 63.1117 130.589 57.3861 130.589 57.3861Z" fill="#D7E057"/>
<path d="M136.626 62.42C132.939 62.1994 131.528 57.1861 131.514 57.1356C131.393 56.6867 130.964 56.3906 130.503 56.4309C130.039 56.4731 129.672 56.8421 129.633 57.3057C129.263 61.6993 124.743 62.4641 124.555 62.4942C124.067 62.5677 123.715 62.9993 123.741 63.4924C123.766 63.9847 124.161 64.3774 124.654 64.401C128.513 64.5826 129.593 69.9284 129.603 69.9809C129.689 70.4368 130.088 70.761 130.544 70.761C130.571 70.761 130.597 70.7604 130.624 70.7578C131.114 70.7175 131.493 70.314 131.504 69.8236C131.587 66.1723 136.831 64.3026 136.883 64.2846C137.316 64.135 137.582 63.7008 137.52 63.2475C137.457 62.7934 137.083 62.4475 136.626 62.42ZM130.497 66.7651C129.906 65.5597 129.001 64.2412 127.653 63.3888C128.84 62.7231 130.018 61.707 130.768 60.2452C131.444 61.4436 132.465 62.7743 133.928 63.5857C132.745 64.2898 131.377 65.3378 130.497 66.7651Z" fill="#3A312A"/>
<path d="M130.589 40.3405C130.148 45.5705 124.698 46.3967 124.698 46.3967C129.377 46.6167 130.544 52.7554 130.544 52.7554C130.644 48.3784 136.569 46.3321 136.569 46.3321C132.13 46.0661 130.589 40.3405 130.589 40.3405Z" fill="#D7E057"/>
<path d="M136.626 45.3741C132.939 45.1535 131.528 40.1402 131.514 40.0897C131.393 39.6408 130.964 39.3454 130.503 39.3851C130.039 39.4266 129.672 39.7962 129.633 40.2598C129.263 44.6535 124.743 45.4176 124.555 45.4477C124.067 45.5212 123.715 45.9529 123.741 46.4459C123.766 46.9382 124.161 47.3309 124.654 47.3545C128.513 47.5361 129.593 52.8819 129.603 52.9344C129.689 53.3897 130.088 53.7145 130.544 53.7145C130.571 53.7145 130.597 53.7132 130.624 53.7113C131.114 53.671 131.493 53.2675 131.504 52.7771C131.587 49.1258 136.831 47.2561 136.883 47.2381C137.316 47.0885 137.582 46.6543 137.52 46.201C137.457 45.7476 137.083 45.4016 136.626 45.3741ZM130.497 49.7192C129.906 48.5132 129.001 47.1953 127.653 46.3429C128.84 45.6766 130.018 44.6612 130.768 43.1987C131.444 44.3971 132.465 45.7278 133.927 46.5392C132.745 47.2433 131.377 48.292 130.497 49.7192Z" fill="#3A312A"/>
<path d="M119.001 83.7227C117.46 81.2224 115.688 78.8884 113.712 76.7399C111.244 74.0606 108.456 71.6754 105.412 69.6547C99.2671 65.5687 92.0733 62.9405 84.3168 62.2627C83.7604 62.2051 83.2105 62.1732 82.6542 62.1476C81.8741 62.1028 81.1003 62.0772 80.3074 62.0772L80.2626 62.0389L72.5956 54.8259L38.3722 22.6167C38.3722 22.6167 27.3353 10.2945 10.0701 10.2945V109.812H123.387C124.666 109.812 125.708 108.776 125.708 107.491C125.708 98.7753 123.252 90.6351 119.001 83.7227Z" fill="#F16C7A"/>
<path d="M119.817 83.2392C118.256 80.7069 116.44 78.3084 114.418 76.1099C111.887 73.3628 109.035 70.9285 105.944 68.8765C99.5254 64.6088 92.0758 61.9985 84.4152 61.329C83.7962 61.2651 83.2002 61.2331 82.7091 61.2101C82.0025 61.1698 81.3369 61.1468 80.6859 61.1404L39.0577 21.9657C38.2852 21.114 27.2956 9.35577 10.0701 9.35577C9.54061 9.35577 9.1109 9.78485 9.1109 10.315V74.6328C9.1109 75.1629 9.54061 75.592 10.0701 75.592C10.5995 75.592 11.0293 75.1629 11.0293 74.6328V11.2863C27.1006 11.7288 37.5524 23.159 37.6585 23.2766C37.6758 23.2964 37.6956 23.3163 37.7148 23.3348L79.6052 62.7569C79.6167 62.7678 79.673 62.8164 79.6845 62.826C79.8585 62.9743 80.0791 63.0555 80.308 63.0555C81.0427 63.0555 81.7921 63.0779 82.61 63.1246C83.0851 63.1463 83.6472 63.177 84.2329 63.2372C91.5898 63.8798 98.7299 66.382 104.882 70.4725C107.846 72.4408 110.58 74.7741 113.006 77.408C114.945 79.5163 116.687 81.8164 118.184 84.2444C122.479 91.2259 124.75 99.2715 124.75 107.51C124.75 108.261 124.139 108.872 123.388 108.872H11.0293V83.4195C11.0293 82.8894 10.5995 82.4603 10.0701 82.4603C9.54061 82.4603 9.1109 82.8894 9.1109 83.4195V109.831C9.1109 110.361 9.54061 110.791 10.0701 110.791H123.387C125.196 110.791 126.668 109.319 126.668 107.51C126.668 98.9172 124.298 90.5244 119.817 83.2392Z" fill="#3A312A"/>
<path d="M80.2626 62.0388L72.5956 54.8258L38.3716 22.6167H10.0695V62.2115L80.3074 62.0772L80.2626 62.0388Z" fill="#8AC6DD"/>
<path d="M80.92 61.3399L39.0295 21.9177C38.8518 21.7502 38.6164 21.6568 38.3722 21.6568H10.0701C9.54061 21.6568 9.1109 22.0859 9.1109 22.616V62.2108C9.1109 62.4653 9.21193 62.7096 9.39226 62.8899C9.57195 63.0696 9.81558 63.17 10.0701 63.17H10.072L80.3093 63.0357C80.7019 63.035 81.0325 62.7754 81.1764 62.4097C81.3209 62.0452 81.2058 61.6091 80.92 61.3399ZM11.0293 61.2503V23.5758H37.9917L77.8896 61.1224L11.0293 61.2503Z" fill="#3A312A"/>
<path d="M126.297 109.812H10.0695V121.508H126.296C127.907 121.508 129.372 120.856 130.427 119.794C131.488 118.739 132.141 117.281 132.141 115.663C132.141 112.434 129.525 109.812 126.297 109.812Z" fill="#87796F"/>
<path d="M126.297 108.853H10.0701C9.54061 108.853 9.1109 109.282 9.1109 109.812V121.508C9.1109 122.038 9.54061 122.467 10.0701 122.467H126.297C128.119 122.467 129.827 121.758 131.104 120.475C132.392 119.195 133.1 117.486 133.1 115.663C133.1 111.908 130.048 108.853 126.297 108.853ZM129.747 119.118C128.83 120.04 127.604 120.549 126.297 120.549H11.0293V110.772H126.297C128.991 110.772 131.182 112.966 131.182 115.663C131.181 116.971 130.673 118.197 129.747 119.118Z" fill="#3A312A"/>
<path d="M87.0739 152.816C104.267 152.816 118.206 138.878 118.206 121.684C118.206 104.491 104.267 90.5526 87.0739 90.5526C69.8804 90.5526 55.9423 104.491 55.9423 121.684C55.9423 138.878 69.8804 152.816 87.0739 152.816Z" fill="#87796F"/>
<path d="M87.0746 89.5928C69.379 89.5928 54.9831 103.989 54.9831 121.684C54.9831 139.379 69.379 153.775 87.0746 153.775C104.769 153.775 119.165 139.379 119.165 121.684C119.165 103.989 104.769 89.5928 87.0746 89.5928ZM87.0746 151.857C70.4367 151.857 56.9014 138.321 56.9014 121.684C56.9014 105.046 70.4367 91.5111 87.0746 91.5111C103.712 91.5111 117.247 105.046 117.247 121.684C117.246 138.321 103.711 151.857 87.0746 151.857Z" fill="#3A312A"/>
<path d="M90.2688 135.09C97.6758 133.324 102.249 125.888 100.483 118.481C98.717 111.074 91.281 106.501 83.874 108.267C76.4671 110.033 71.8941 117.469 73.66 124.876C75.4259 132.283 82.8619 136.856 90.2688 135.09Z" fill="#FCE8CB"/>
<path d="M87.0748 106.937C78.9435 106.937 72.3278 113.552 72.3278 121.683C72.3278 129.815 78.9435 136.43 87.0748 136.43C95.206 136.43 101.822 129.815 101.822 121.683C101.821 113.552 95.2054 106.937 87.0748 106.937ZM87.0748 134.513C80.0012 134.513 74.2461 128.758 74.2461 121.684C74.2461 114.61 80.0012 108.856 87.0748 108.856C94.1484 108.856 99.9035 114.61 99.9035 121.684C99.9028 128.758 94.1478 134.513 87.0748 134.513Z" fill="#3A312A"/>
<path d="M115.478 69.6533H103.064C98.9352 69.6533 95.5877 73.0008 95.5877 77.1298C95.5877 81.2587 98.9352 84.6062 103.064 84.6062H115.478C119.607 84.6062 122.954 81.2587 122.954 77.1298C122.954 73.0008 119.607 69.6533 115.478 69.6533Z" fill="#D7E057"/>
<path d="M115.478 68.6942H103.064C98.4122 68.6942 94.6279 72.4785 94.6279 77.1298C94.6279 81.7812 98.4122 85.5655 103.064 85.5655H115.478C120.129 85.5655 123.913 81.7812 123.913 77.1298C123.914 72.4785 120.129 68.6942 115.478 68.6942ZM115.478 83.6477H103.064C99.4699 83.6477 96.5463 80.7242 96.5463 77.1305C96.5463 73.5368 99.4699 70.6132 103.064 70.6132H115.478C119.071 70.6132 121.995 73.5368 121.995 77.1305C121.995 80.7235 119.072 83.6477 115.478 83.6477Z" fill="#3A312A"/>
<path d="M90.6402 26.8116C95.2313 26.8116 98.953 23.0898 98.953 18.4987C98.953 13.9076 95.2313 10.1858 90.6402 10.1858C86.0491 10.1858 82.3273 13.9076 82.3273 18.4987C82.3273 23.0898 86.0491 26.8116 90.6402 26.8116Z" fill="#CBFCF3"/>
<path d="M90.6408 9.22662C85.5284 9.22662 81.3688 13.3862 81.3688 18.4987C81.3688 23.6111 85.5284 27.7707 90.6408 27.7707C95.7532 27.7707 99.9128 23.6111 99.9128 18.4987C99.9128 13.3862 95.7532 9.22662 90.6408 9.22662ZM90.6408 25.8523C86.586 25.8523 83.2871 22.5534 83.2871 18.4987C83.2871 14.4439 86.586 11.145 90.6408 11.145C94.6956 11.145 97.9945 14.4439 97.9945 18.4987C97.9945 22.5534 94.6956 25.8523 90.6408 25.8523Z" fill="#3A312A"/>
<path d="M67.6201 25.5327C70.4453 25.5327 72.7357 23.2424 72.7357 20.4171C72.7357 17.5918 70.4453 15.3015 67.6201 15.3015C64.7948 15.3015 62.5045 17.5918 62.5045 20.4171C62.5045 23.2424 64.7948 25.5327 67.6201 25.5327Z" fill="#CBFCF3"/>
<path d="M67.6207 14.3422C64.2712 14.3422 61.5459 17.0676 61.5459 20.417C61.5459 23.7665 64.2712 26.4918 67.6207 26.4918C70.9701 26.4918 73.6955 23.7665 73.6955 20.417C73.6955 17.0669 70.9701 14.3422 67.6207 14.3422ZM67.6207 24.5734C65.3289 24.5734 63.4642 22.7088 63.4642 20.417C63.4642 18.1252 65.3289 16.2606 67.6207 16.2606C69.9125 16.2606 71.7771 18.1252 71.7771 20.417C71.7771 22.7088 69.9125 24.5734 67.6207 24.5734Z" fill="#3A312A"/>
<path d="M89.8531 46.1589C89.8781 45.8041 89.9075 45.4511 89.9075 45.0898C89.9107 36.6887 83.1025 29.876 74.7007 29.8728C67.2767 29.8702 61.1021 35.1892 59.7619 42.2231C58.9958 42.0159 58.1939 41.8951 57.362 41.8951C52.2822 41.8932 48.1629 46.01 48.1609 51.0897C48.1603 52.9288 48.7051 54.6381 49.6349 56.0755C44.8582 56.4074 41.0829 60.3765 41.0809 65.2376C41.079 70.3174 45.1958 74.4367 50.2756 74.4387C53.5189 74.4399 56.3644 72.7582 58.0034 70.2228C60.3393 72.3956 63.4611 73.7359 66.9026 73.7372C73.7972 73.7397 79.4358 68.4074 79.9461 61.6426C81.3868 62.5794 83.1018 63.1293 84.9485 63.13C90.0283 63.1319 94.1477 59.0151 94.1496 53.9353C94.1502 50.6581 92.4327 47.7889 89.8531 46.1589Z" fill="#CBFCF3"/>
<path d="M90.8472 45.6714C90.8587 45.4789 90.8658 45.2852 90.8658 45.0902C90.8677 40.7707 89.1866 36.7095 86.1338 33.6542C83.0805 30.5989 79.02 28.9152 74.7011 28.914H74.6954C67.2765 28.914 60.841 33.9739 59.0333 41.0808C58.4725 40.9849 57.9136 40.9356 57.3631 40.9356H57.3586C51.7602 40.9356 47.2035 45.4898 47.2016 51.0888C47.2009 52.5577 47.5187 53.9977 48.1288 55.3227C43.5394 56.3164 40.1229 60.4223 40.1216 65.2367C40.1203 67.9499 41.176 70.5007 43.0937 72.4197C45.0115 74.3386 47.5616 75.3963 50.2741 75.3969H50.2786C53.3691 75.3969 56.2453 74.0061 58.1662 71.6287C60.6505 73.6122 63.7134 74.6935 66.9017 74.6948H66.9062C73.7138 74.6942 79.5206 69.7346 80.7164 63.1598C82.0394 63.7698 83.4782 64.0876 84.947 64.0882H84.9515C87.6628 64.0882 90.2123 63.0325 92.1306 61.1161C94.0496 59.1984 95.1066 56.6482 95.1079 53.935C95.1092 50.6291 93.5265 47.5815 90.8472 45.6714ZM90.775 59.7598C89.2192 61.3149 87.1518 62.1712 84.9528 62.1712H84.9496C83.358 62.1705 81.8086 61.7101 80.469 60.8386C80.185 60.6538 79.8237 60.632 79.5213 60.7829C79.2169 60.9332 79.0155 61.2325 78.9899 61.5701C78.5161 67.8552 73.2093 72.7771 66.9075 72.7771H66.9037C63.842 72.7758 60.9133 71.6191 58.6573 69.5197C58.4495 69.3266 58.1688 69.2345 57.8855 69.2704C57.6041 69.3055 57.3528 69.4628 57.1987 69.7013C55.6698 72.0673 53.0832 73.4792 50.2805 73.4792H50.276C48.0757 73.4786 46.0071 72.6211 44.4519 71.0647C42.8962 69.5076 42.0406 67.439 42.0406 65.238C42.0419 60.9351 45.4066 57.3305 49.7005 57.0325C50.0395 57.0089 50.3406 56.8081 50.4922 56.5044C50.6437 56.2006 50.6239 55.8393 50.4397 55.5548C49.5752 54.2183 49.1193 52.674 49.1199 51.0901C49.1218 46.5481 52.8166 42.8546 57.3592 42.8546H57.3624C58.0652 42.8546 58.7878 42.9538 59.511 43.1494C59.77 43.2191 60.0436 43.1782 60.2706 43.0362C60.497 42.8943 60.6543 42.6647 60.7042 42.4025C61.9825 35.6973 67.8654 30.8323 74.696 30.8323H74.7005C78.5078 30.8336 82.0861 32.3171 84.7776 35.0105C87.4684 37.7032 88.9493 41.2829 88.9481 45.0902C88.9481 45.3811 88.927 45.6669 88.9065 45.9528L88.8963 46.0915C88.8713 46.4439 89.0421 46.7815 89.34 46.9701C91.7514 48.494 93.1915 51.0978 93.1902 53.9357C93.1895 56.1354 92.3314 58.204 90.775 59.7598Z" fill="#3A312A"/>
<path d="M84.7277 55.267H60.1044C58.7091 55.267 57.5779 56.3982 57.5779 57.7935V82.4168C57.5779 83.8121 58.7091 84.9439 60.1044 84.9439H84.7277C86.123 84.9439 87.2542 83.8128 87.2542 82.4168V57.7935C87.2542 56.3982 86.123 55.267 84.7277 55.267Z" fill="#D7E057"/>
<path d="M84.7278 54.308H60.1044C58.1822 54.308 56.6188 55.8714 56.6188 57.7936V82.417C56.6188 84.3392 58.1822 85.9026 60.1044 85.9026H84.7278C86.6499 85.9026 88.214 84.3392 88.214 82.417V57.7936C88.214 55.8714 86.6493 54.308 84.7278 54.308ZM86.2957 82.417C86.2957 83.2815 85.5923 83.9843 84.7278 83.9843H60.1044C59.2399 83.9843 58.5371 83.2809 58.5371 82.417V57.7936C58.5371 56.9291 59.2405 56.2263 60.1044 56.2263H84.7278C85.5929 56.2263 86.2957 56.9297 86.2957 57.7936V82.417Z" fill="#3A312A"/>
<path d="M120.214 10.1857C110.434 20.7833 95.8518 36.5356 95.2782 37.1565C90.341 34.7515 84.217 35.7497 80.3189 40.0072L76.793 43.8579L76.8007 43.865L69.4463 51.8971C68.3509 53.0935 68.4763 54.9761 69.7552 56.0132C70.9331 56.9679 72.6749 56.7595 73.6987 55.6411L80.9782 47.6908L81.0447 47.7515L65.8245 64.3747C64.7291 65.5711 64.8544 67.453 66.1333 68.4902C67.3112 69.4455 69.0531 69.2364 70.0768 68.118L85.2222 51.5767L85.2811 51.6304L69.2929 69.0919C68.1975 70.2883 68.3228 72.1702 69.6017 73.2074C70.7796 74.1628 72.5215 73.9537 73.5452 72.8353L89.4586 55.4556L89.5174 55.5094L75.8594 70.4258C74.764 71.6222 74.8893 73.5048 76.1682 74.542C77.3461 75.4973 79.088 75.2882 80.1117 74.1698L93.695 59.3345L93.7538 59.3883L82.8102 71.3402C81.7865 72.4586 81.7315 74.212 82.7866 75.301C83.9318 76.4833 85.8182 76.4431 86.9136 75.2466L104.046 56.535C106.131 54.2586 106.802 51.1931 106.116 48.4057L122.927 30.6878L129.112 24.1699L142.401 10.1653L120.214 10.1857Z" fill="#FCE8CB"/>
<path d="M143.282 9.78547C143.131 9.43313 142.785 9.20549 142.401 9.20549H142.4L120.213 9.22659C119.945 9.22723 119.691 9.3385 119.509 9.53545C111.181 18.5594 99.3705 31.3215 95.6943 35.2951L95.044 35.9972C89.7653 33.7662 83.5128 35.0988 79.6108 39.3594L76.0849 43.2096C76.0529 43.2447 76.0242 43.2805 75.9986 43.3189L68.7376 51.2487C68.0349 52.0161 67.6761 53.052 67.7535 54.0905C67.8315 55.143 68.3271 56.0907 69.1501 56.7576C69.6418 57.1566 70.209 57.4086 70.7999 57.5173L65.1151 63.7257C64.4124 64.493 64.0537 65.5289 64.131 66.5668C64.209 67.6193 64.7046 68.567 65.5276 69.2333C66.1664 69.7512 66.9331 70.0217 67.7113 70.0537C67.6077 70.4521 67.5687 70.8677 67.5994 71.284C67.6774 72.3365 68.173 73.2836 68.9966 73.9505C70.5492 75.2102 72.8576 75.0031 74.2522 73.4812L74.3117 73.4159C74.5259 74.1449 74.9556 74.7914 75.5638 75.2844C77.1157 76.5448 79.4241 76.3369 80.8194 74.815L81.1986 74.4007C81.3604 74.9749 81.6603 75.514 82.0977 75.9661C82.8222 76.7136 83.7877 77.1235 84.823 77.1235C84.8409 77.1235 84.8601 77.1235 84.8786 77.1235C85.919 77.1088 86.9191 76.6599 87.6212 75.8932L104.755 57.1809C106.86 54.8815 107.741 51.7443 107.162 48.696L123.624 31.3465C123.988 30.9622 123.973 30.3547 123.588 29.9902C123.204 29.6257 122.597 29.6411 122.232 30.0254L105.42 47.7433C105.195 47.9805 105.106 48.3156 105.185 48.6327C105.821 51.2174 105.131 53.9287 103.34 55.8854L86.2061 74.5976C85.8538 74.9819 85.3729 75.1981 84.8511 75.2058H84.8236C84.3127 75.2058 83.8344 75.0031 83.4757 74.6322C82.8011 73.9358 82.8209 72.7483 83.5185 71.9861L94.4614 60.0348C94.8189 59.6447 94.7927 59.0392 94.4032 58.6811L94.3444 58.6267C94.1577 58.4541 93.9115 58.3626 93.6538 58.3741C93.3999 58.385 93.1601 58.4969 92.9875 58.6843L79.4043 73.5195C78.7054 74.2824 77.5256 74.4052 76.7723 73.7951C76.3643 73.4639 76.1194 72.9952 76.0804 72.4753C76.0414 71.9548 76.2147 71.456 76.5671 71.0717L90.2251 56.1552C90.3965 55.9672 90.4873 55.7185 90.4757 55.464C90.4642 55.2095 90.3523 54.9697 90.1637 54.7983L90.1042 54.7446C89.7148 54.3891 89.1092 54.4153 88.7511 54.806L72.8378 72.1856C72.1389 72.9485 70.9591 73.0713 70.2052 72.4606C69.7978 72.13 69.5523 71.6619 69.5139 71.142C69.4749 70.6215 69.6482 70.1228 70.0005 69.7378L85.9887 52.2763C86.3462 51.8863 86.32 51.2807 85.9305 50.9226L85.8717 50.8689C85.6843 50.6963 85.433 50.6054 85.1811 50.6163C84.9266 50.6272 84.6868 50.7391 84.5148 50.9265L69.3694 67.4678C68.6718 68.2306 67.4907 68.3528 66.7374 67.7427C66.3301 67.4121 66.0845 66.9434 66.0455 66.4242C66.0065 65.9037 66.1798 65.4049 66.5322 65.0206L81.753 48.3974C82.1104 48.0074 82.0842 47.4018 81.6948 47.0437L81.6283 46.983C81.441 46.8103 81.1903 46.7163 80.9377 46.7304C80.6838 46.7412 80.444 46.8531 80.2714 47.0405L72.9913 54.9914C72.2936 55.753 71.1125 55.8771 70.3593 55.2664C69.9519 54.9358 69.7064 54.4677 69.6674 53.9472C69.6284 53.4267 69.8017 52.9279 70.154 52.543L77.5083 44.5108C77.5403 44.4757 77.5691 44.4399 77.5947 44.4015L81.0266 40.6537C84.5212 36.8368 90.2091 35.7529 94.8585 38.0179C95.2409 38.2033 95.6962 38.117 95.9833 37.8062L97.1024 36.5964C100.738 32.6682 112.324 20.1478 120.635 11.143L140.167 11.1245L128.418 23.5074C128.054 23.8918 128.069 24.4986 128.454 24.8631C128.838 25.2269 129.444 25.2122 129.81 24.8273L143.097 10.8227C143.361 10.5464 143.434 10.1378 143.282 9.78547Z" fill="#3A312A"/>
<path d="M94.631 77.1299C94.631 72.8072 97.8986 69.2327 102.1 68.7531C100.316 67.7492 98.4677 66.8731 96.5685 66.125L88.2173 75.2499V82.4182C88.2173 82.821 88.1469 83.2047 88.019 83.5628C89.4898 84.8097 91.3953 85.5643 93.4736 85.5643H103.065C98.4101 85.5643 94.631 81.7851 94.631 77.1299Z" fill="#D34E5C"/>
<path d="M118.616 84.9568C117.644 85.3469 116.589 85.5643 115.477 85.5643H109.37C112.938 91.8373 114.92 98.8968 115.131 106.148C115.63 107.024 116.078 107.926 116.48 108.853H123.387C124.135 108.853 124.749 108.239 124.749 107.491C124.749 99.5363 122.626 91.767 118.616 84.9568Z" fill="#D34E5C"/>
<path d="M11.0286 11.2664V12.8714C18.4654 15.1734 23.8624 19.3682 26.4138 21.6575H36.0056C32.4566 18.473 23.4154 11.6053 11.0286 11.2664Z" fill="#D34E5C"/>
<path d="M37.9942 23.5759H28.5176L50.1502 43.936C50.1566 43.9296 50.1694 43.9168 50.1758 43.9104C51.8895 42.1967 54.102 41.18 56.4808 40.9753L37.9942 23.5759Z" fill="#6CA8BF"/>
</svg>
